<svg width="173" height="20" viewBox="0 0 173 20" fill="none" xmlns="http://www.w3.org/2000/svg">
<path d="M8.242 0.592H11.57L13.676 6.702L15.808 0.592H19.11L15.938 8.99L18.278 14.866L23.504 0.539999H27.404L20.02 19H16.926L13.676 11.252L10.452 19H7.358L0 0.539999H3.848L9.1 14.866L11.388 8.99L8.242 0.592ZM34.227 19.26C33.135 19.26 32.147 19.078 31.263 18.714C30.379 18.3327 29.625 17.8213 29.001 17.18C28.377 16.5213 27.8916 15.776 27.545 14.944C27.2156 14.0947 27.051 13.202 27.051 12.266C27.051 10.966 27.337 9.77867 27.909 8.704C28.4983 7.62933 29.3303 6.77133 30.405 6.13C31.497 5.47133 32.7796 5.142 34.253 5.142C35.7436 5.142 37.0176 5.47133 38.075 6.13C39.1323 6.77133 39.9383 7.62933 40.493 8.704C41.065 9.76133 41.351 10.9053 41.351 12.136C41.351 12.344 41.3423 12.5607 41.325 12.786C41.3076 12.994 41.2903 13.1673 41.273 13.306H30.743C30.8123 13.9993 31.0116 14.606 31.341 15.126C31.6876 15.646 32.121 16.0447 32.641 16.322C33.1783 16.582 33.7503 16.712 34.357 16.712C35.0503 16.712 35.7003 16.5473 36.307 16.218C36.931 15.8713 37.3556 15.4207 37.581 14.866L40.571 15.698C40.2416 16.3913 39.765 17.0067 39.141 17.544C38.5343 18.0813 37.815 18.506 36.983 18.818C36.151 19.1127 35.2323 19.26 34.227 19.26ZM30.665 11.096H37.789C37.7196 10.4027 37.5203 9.80467 37.191 9.302C36.879 8.782 36.463 8.38333 35.943 8.106C35.423 7.81133 34.8423 7.664 34.201 7.664C33.577 7.664 33.005 7.81133 32.485 8.106C31.9823 8.38333 31.5663 8.782 31.237 9.302C30.925 9.80467 30.7343 10.4027 30.665 11.096ZM52.0014 19.26C50.9614 19.26 50.0341 19.026 49.2194 18.558C48.4048 18.09 47.7634 17.4487 47.2954 16.634V19H44.2534V0.0199995H47.7374V7.768C48.2228 6.95333 48.8554 6.312 49.6354 5.844C50.4328 5.376 51.3601 5.142 52.4174 5.142C53.3014 5.142 54.1074 5.33267 54.8354 5.714C55.5634 6.078 56.1874 6.58933 56.7074 7.248C57.2448 7.90667 57.6521 8.66067 57.9294 9.51C58.2241 10.3593 58.3714 11.2693 58.3714 12.24C58.3714 13.2107 58.2068 14.1207 57.8774 14.97C57.5654 15.8193 57.1234 16.5733 56.5514 17.232C55.9794 17.8733 55.3034 18.376 54.5234 18.74C53.7608 19.0867 52.9201 19.26 52.0014 19.26ZM51.0394 16.296C51.5941 16.296 52.0968 16.192 52.5474 15.984C53.0154 15.7587 53.4141 15.464 53.7434 15.1C54.0901 14.736 54.3501 14.3113 54.5234 13.826C54.7141 13.3233 54.8094 12.8033 54.8094 12.266C54.8094 11.5207 54.6534 10.836 54.3414 10.212C54.0468 9.57067 53.6308 9.05933 53.0934 8.678C52.5734 8.29667 51.9581 8.106 51.2474 8.106C50.7448 8.106 50.2594 8.22733 49.7914 8.47C49.3408 8.69533 48.9334 9.00733 48.5694 9.406C48.2228 9.80467 47.9454 10.2553 47.7374 10.758V14.008C47.8414 14.3547 48.0061 14.6667 48.2314 14.944C48.4741 15.2213 48.7514 15.464 49.0634 15.672C49.3754 15.8627 49.6961 16.0187 50.0254 16.14C50.3721 16.244 50.7101 16.296 51.0394 16.296Z" fill="#2196F3"/>
<path d="M61.9019 19V0.539999H76.8519V19H73.2899V3.686H65.4639V19H61.9019ZM87.4746 19.26C86.3652 19.26 85.3686 19.078 84.4846 18.714C83.6006 18.3327 82.8466 17.8127 82.2226 17.154C81.6159 16.4953 81.1479 15.7413 80.8186 14.892C80.4892 14.0427 80.3246 13.15 80.3246 12.214C80.3246 11.2607 80.4892 10.3593 80.8186 9.51C81.1479 8.66067 81.6159 7.90667 82.2226 7.248C82.8466 6.58933 83.6006 6.078 84.4846 5.714C85.3686 5.33267 86.3652 5.142 87.4746 5.142C88.5839 5.142 89.5719 5.33267 90.4386 5.714C91.3226 6.078 92.0766 6.58933 92.7006 7.248C93.3246 7.90667 93.7926 8.66067 94.1046 9.51C94.4339 10.3593 94.5986 11.2607 94.5986 12.214C94.5986 13.15 94.4339 14.0427 94.1046 14.892C93.7926 15.7413 93.3246 16.4953 92.7006 17.154C92.0939 17.8127 91.3486 18.3327 90.4646 18.714C89.5806 19.078 88.5839 19.26 87.4746 19.26ZM83.9126 12.214C83.9126 13.0113 84.0686 13.722 84.3806 14.346C84.6926 14.9527 85.1172 15.4293 85.6546 15.776C86.1919 16.1227 86.7986 16.296 87.4746 16.296C88.1332 16.296 88.7312 16.1227 89.2686 15.776C89.8059 15.412 90.2306 14.9267 90.5426 14.32C90.8719 13.696 91.0366 12.9853 91.0366 12.188C91.0366 11.408 90.8719 10.706 90.5426 10.082C90.2306 9.458 89.8059 8.97267 89.2686 8.626C88.7312 8.27933 88.1332 8.106 87.4746 8.106C86.7986 8.106 86.1919 8.288 85.6546 8.652C85.1172 8.99867 84.6926 9.484 84.3806 10.108C84.0686 10.7147 83.9126 11.4167 83.9126 12.214ZM96.7421 19.182V16.088C97.1581 16.0707 97.5308 15.9667 97.8601 15.776C98.1895 15.5853 98.4755 15.2647 98.7181 14.814C98.9781 14.346 99.1775 13.696 99.3161 12.864C99.4721 12.032 99.5761 10.966 99.6281 9.666L99.8101 5.376H110.028V19H106.544V8.418H102.878L102.826 10.004C102.757 11.7893 102.583 13.2713 102.306 14.45C102.029 15.6287 101.639 16.5647 101.136 17.258C100.651 17.934 100.044 18.4193 99.3161 18.714C98.5881 19.0087 97.7301 19.1647 96.7421 19.182ZM113.973 19V5.402H117.457V14.346L123.567 5.376H126.739V19H123.255V10.264L117.223 19H113.973ZM133.844 19V8.418H129.528V5.376H141.67V8.418H137.328V19H133.844ZM150.72 19.26C149.628 19.26 148.64 19.078 147.756 18.714C146.872 18.3327 146.118 17.8213 145.494 17.18C144.87 16.5213 144.385 15.776 144.038 14.944C143.709 14.0947 143.544 13.202 143.544 12.266C143.544 10.966 143.83 9.77867 144.402 8.704C144.992 7.62933 145.824 6.77133 146.898 6.13C147.99 5.47133 149.273 5.142 150.746 5.142C152.237 5.142 153.511 5.47133 154.568 6.13C155.626 6.77133 156.432 7.62933 156.986 8.704C157.558 9.76133 157.844 10.9053 157.844 12.136C157.844 12.344 157.836 12.5607 157.818 12.786C157.801 12.994 157.784 13.1673 157.766 13.306H147.236C147.306 13.9993 147.505 14.606 147.834 15.126C148.181 15.646 148.614 16.0447 149.134 16.322C149.672 16.582 150.244 16.712 150.85 16.712C151.544 16.712 152.194 16.5473 152.8 16.218C153.424 15.8713 153.849 15.4207 154.074 14.866L157.064 15.698C156.735 16.3913 156.258 17.0067 155.634 17.544C155.028 18.0813 154.308 18.506 153.476 18.818C152.644 19.1127 151.726 19.26 150.72 19.26ZM147.158 11.096H154.282C154.213 10.4027 154.014 9.80467 153.684 9.302C153.372 8.782 152.956 8.38333 152.436 8.106C151.916 7.81133 151.336 7.664 150.694 7.664C150.07 7.664 149.498 7.81133 148.978 8.106C148.476 8.38333 148.06 8.782 147.73 9.302C147.418 9.80467 147.228 10.4027 147.158 11.096ZM162.983 5.376L165.843 9.64L166.051 10.108L166.311 9.64L169.145 5.376H172.811L168.079 12.162L172.889 19H169.223L166.285 14.762L166.051 14.32L165.843 14.762L162.931 19H159.265L164.075 12.24L159.343 5.376H162.983Z" fill="white"/>
</svg>
